<svg width="142" height="48" viewBox="0 0 142 48" fill="none" xmlns="http://www.w3.org/2000/svg">
<rect y="48" width="48" height="1.34014" transform="rotate(-90 0 48)" fill="black"/>
<rect x="3.35059" y="48" width="48" height="1.34014" transform="rotate(-90 3.35059 48)" fill="black"/>
<rect x="7.36914" y="48" width="48" height="3.35034" transform="rotate(-90 7.36914 48)" fill="black"/>
<rect x="15.9023" y="48" width="48" height="4.39499" transform="rotate(-90 15.9023 48)" fill="black"/>
<rect x="23.8555" y="48" width="48" height="1.60414" transform="rotate(-90 23.8555 48)" fill="black"/>
<rect x="31.1211" y="48" width="48" height="4.28442" transform="rotate(-90 31.1211 48)" fill="black"/>
<rect x="40.0459" y="48" width="48" height="2.83037" transform="rotate(-90 40.0459 48)" fill="black"/>
<rect x="45.207" y="48" width="48" height="2.83037" transform="rotate(-90 45.207 48)" fill="black"/>
<rect x="95.3652" y="48" width="48" height="2.83037" transform="rotate(-90 95.3652 48)" fill="black"/>
<rect x="100.526" y="48" width="48" height="2.83037" transform="rotate(-90 100.526 48)" fill="black"/>
<rect x="136.217" y="48" width="48" height="1.08082" transform="rotate(-90 136.217 48)" fill="black"/>
<rect x="123.484" y="48" width="48" height="1.08082" transform="rotate(-90 123.484 48)" fill="black"/>
<rect x="50.3682" y="48" width="48" height="2.83037" transform="rotate(-90 50.3682 48)" fill="black"/>
<rect x="64.3936" y="48" width="48" height="2.83037" transform="rotate(-90 64.3936 48)" fill="black"/>
<rect x="55.5303" y="48" width="48" height="5.25334" transform="rotate(-90 55.5303 48)" fill="black"/>
<rect x="105.277" y="48" width="48" height="5.58502" transform="rotate(-90 105.277 48)" fill="black"/>
<rect x="71.0156" y="48" width="48" height="3.71487" transform="rotate(-90 71.0156 48)" fill="black"/>
<rect x="85.041" y="48" width="48" height="3.71487" transform="rotate(-90 85.041 48)" fill="black"/>
<rect x="79.8828" y="48" width="48" height="1.85743" transform="rotate(-90 79.8828 48)" fill="black"/>
<rect x="140.143" y="48" width="48" height="1.85743" transform="rotate(-90 140.143 48)" fill="black"/>
<rect x="91.1484" y="48" width="48" height="1.85743" transform="rotate(-90 91.1484 48)" fill="black"/>
<rect x="115.102" y="48" width="48" height="1.85743" transform="rotate(-90 115.102 48)" fill="black"/>
<rect x="126.981" y="48" width="48" height="4.54307" transform="rotate(-90 126.981 48)" fill="black"/>
<rect x="77.2227" y="48" width="48" height="1.85743" transform="rotate(-90 77.2227 48)" fill="black"/>
</svg>
