<svg width="46" height="46" viewBox="0 0 46 46" fill="none" xmlns="http://www.w3.org/2000/svg">
<rect width="46" height="46" fill="#ADAA59"/>
<path d="M18.0628 18.9998V11.8387H17V8.41028H20.4021C20.3094 8.30316 20.2463 8.1825 20.213 8.04828C20.1797 7.91418 20.163 7.77338 20.163 7.62573C20.163 7.13373 20.3352 6.71558 20.6796 6.37109C21.024 6.02673 21.4422 5.85449 21.9342 5.85449C22.1864 5.85449 22.4201 5.90747 22.6352 6.01324C22.8502 6.11914 23.0425 6.26062 23.212 6.43774C23.3815 6.25391 23.5739 6.11072 23.789 6.0083C24.004 5.90576 24.2376 5.85449 24.4898 5.85449C24.9819 5.85449 25.4002 6.02673 25.7446 6.37109C26.089 6.71558 26.2612 7.13373 26.2612 7.62573C26.2612 7.77167 26.2428 7.9104 26.2061 8.04199C26.1693 8.17358 26.108 8.29639 26.022 8.41028H29.5V11.8387H28.4372V18.9998H18.0628ZM24.4898 6.84137C24.2675 6.84137 24.0813 6.9165 23.9309 7.06689C23.7806 7.21722 23.7054 7.4035 23.7054 7.62573C23.7054 7.84802 23.7806 8.0343 23.9309 8.18463C24.0813 8.33508 24.2675 8.41028 24.4898 8.41028C24.7121 8.41028 24.8984 8.33508 25.0489 8.18463C25.1992 8.0343 25.2743 7.84802 25.2743 7.62573C25.2743 7.4035 25.1992 7.21716 25.0489 7.06689C24.8984 6.9165 24.7121 6.84137 24.4898 6.84137ZM21.1498 7.62573C21.1498 7.84802 21.225 8.0343 21.3753 8.18463C21.5257 8.33508 21.712 8.41028 21.9342 8.41028C22.1565 8.41028 22.3428 8.33508 22.4931 8.18463C22.6434 8.0343 22.7186 7.84802 22.7186 7.62573C22.7186 7.4035 22.6434 7.21716 22.4931 7.06689C22.3428 6.9165 22.1565 6.84137 21.9342 6.84137C21.712 6.84137 21.5257 6.9165 21.3753 7.06689C21.225 7.21722 21.1498 7.4035 21.1498 7.62573ZM17.9868 9.39697V10.8521H22.7566V9.39697H17.9868ZM22.7566 18.0129V11.8387H19.0495V18.0129H22.7566ZM23.7434 18.0129H27.4505V11.8387H23.7434V18.0129ZM28.5132 10.8521V9.39697H23.7434V10.8521H28.5132Z" fill="white"/>
<rect x="3.5" y="3.5" width="39" height="39" stroke="white" stroke-dasharray="2 2"/>
<path d="M12.8301 20.8906V28H11.6143V20.8906H12.8301ZM15.0615 20.8906V21.8672H9.40234V20.8906H15.0615ZM17.0439 20.5V28H15.8721V20.5H17.0439ZM16.8389 25.1631L16.458 25.1582C16.4613 24.7936 16.5117 24.4567 16.6094 24.1475C16.7103 23.8382 16.8503 23.5697 17.0293 23.3418C17.2116 23.1107 17.4297 22.9333 17.6836 22.8096C17.9375 22.6826 18.2191 22.6191 18.5283 22.6191C18.7887 22.6191 19.0231 22.6549 19.2314 22.7266C19.443 22.7982 19.6253 22.9137 19.7783 23.0732C19.9313 23.2295 20.0469 23.4346 20.125 23.6885C20.2064 23.9391 20.2471 24.2451 20.2471 24.6064V28H19.0654V24.5967C19.0654 24.3428 19.028 24.141 18.9531 23.9912C18.8815 23.8415 18.7757 23.734 18.6357 23.6689C18.4958 23.6006 18.3249 23.5664 18.123 23.5664C17.9115 23.5664 17.7243 23.6087 17.5615 23.6934C17.402 23.778 17.2686 23.8936 17.1611 24.04C17.0537 24.1865 16.9723 24.3558 16.917 24.5479C16.8649 24.7399 16.8389 24.945 16.8389 25.1631ZM24.417 26.9404V24.4209C24.417 24.2321 24.3828 24.0693 24.3145 23.9326C24.2461 23.7959 24.1419 23.6901 24.002 23.6152C23.8652 23.5404 23.6927 23.5029 23.4844 23.5029C23.2923 23.5029 23.1263 23.5355 22.9863 23.6006C22.8464 23.6657 22.7373 23.7536 22.6592 23.8643C22.5811 23.9749 22.542 24.1003 22.542 24.2402H21.3701C21.3701 24.0319 21.4206 23.8301 21.5215 23.6348C21.6224 23.4395 21.7689 23.2653 21.9609 23.1123C22.153 22.9593 22.3825 22.8389 22.6494 22.751C22.9163 22.6631 23.2158 22.6191 23.5479 22.6191C23.945 22.6191 24.2965 22.6859 24.6025 22.8193C24.9118 22.9528 25.1543 23.1546 25.3301 23.4248C25.5091 23.6917 25.5986 24.027 25.5986 24.4307V26.7793C25.5986 27.0202 25.6149 27.2367 25.6475 27.4287C25.6833 27.6175 25.7337 27.7819 25.7988 27.9219V28H24.5928C24.5374 27.873 24.4935 27.7119 24.4609 27.5166C24.4316 27.318 24.417 27.126 24.417 26.9404ZM24.5879 24.7871L24.5977 25.5146H23.7529C23.5348 25.5146 23.3428 25.5358 23.1768 25.5781C23.0107 25.6172 22.8724 25.6758 22.7617 25.7539C22.651 25.832 22.568 25.9264 22.5127 26.0371C22.4574 26.1478 22.4297 26.2731 22.4297 26.4131C22.4297 26.5531 22.4622 26.6816 22.5273 26.7988C22.5924 26.9128 22.6868 27.0023 22.8105 27.0674C22.9375 27.1325 23.0905 27.165 23.2695 27.165C23.5104 27.165 23.7204 27.1162 23.8994 27.0186C24.0817 26.9176 24.2249 26.7956 24.3291 26.6523C24.4333 26.5059 24.4886 26.3675 24.4951 26.2373L24.876 26.7598C24.8369 26.8932 24.7702 27.0365 24.6758 27.1895C24.5814 27.3424 24.4577 27.4889 24.3047 27.6289C24.1549 27.7656 23.9743 27.8779 23.7627 27.9658C23.5544 28.0537 23.3135 28.0977 23.04 28.0977C22.695 28.0977 22.3874 28.0293 22.1172 27.8926C21.847 27.7526 21.6354 27.5654 21.4824 27.3311C21.3294 27.0934 21.2529 26.8249 21.2529 26.5254C21.2529 26.2454 21.305 25.998 21.4092 25.7832C21.5166 25.5651 21.6729 25.3828 21.8779 25.2363C22.0863 25.0898 22.3402 24.9792 22.6396 24.9043C22.9391 24.8262 23.2809 24.7871 23.665 24.7871H24.5879ZM27.9961 23.8447V28H26.8193V22.7168H27.9277L27.9961 23.8447ZM27.7861 25.1631L27.4053 25.1582C27.4085 24.7839 27.4606 24.4404 27.5615 24.1279C27.6657 23.8154 27.8089 23.5469 27.9912 23.3223C28.1768 23.0977 28.3981 22.9251 28.6553 22.8047C28.9124 22.681 29.1989 22.6191 29.5146 22.6191C29.7686 22.6191 29.998 22.6549 30.2031 22.7266C30.4115 22.7949 30.5889 22.9072 30.7354 23.0635C30.8851 23.2197 30.999 23.4232 31.0771 23.6738C31.1553 23.9212 31.1943 24.2256 31.1943 24.5869V28H30.0127V24.582C30.0127 24.3281 29.9753 24.1279 29.9004 23.9814C29.8288 23.8317 29.723 23.7259 29.583 23.6641C29.4463 23.599 29.2754 23.5664 29.0703 23.5664C28.8685 23.5664 28.6878 23.6087 28.5283 23.6934C28.3688 23.778 28.2337 23.8936 28.123 24.04C28.0156 24.1865 27.9326 24.3558 27.874 24.5479C27.8154 24.7399 27.7861 24.945 27.7861 25.1631ZM33.582 20.5V28H32.4004V20.5H33.582ZM36.8633 22.7168L34.5635 25.2656L33.3037 26.5547L32.9961 25.5586L33.9482 24.3818L35.4424 22.7168H36.8633ZM35.6963 28L33.9824 25.5195L34.7246 24.6943L37.0586 28H35.6963ZM17.2002 39.4238L18.6357 34.7168H19.8955L17.7764 40.8057C17.7275 40.9359 17.6641 41.0775 17.5859 41.2305C17.5078 41.3835 17.4053 41.5283 17.2783 41.665C17.1546 41.805 17 41.9173 16.8145 42.002C16.6289 42.0898 16.4043 42.1338 16.1406 42.1338C16.0365 42.1338 15.9355 42.124 15.8379 42.1045C15.7435 42.0882 15.654 42.0703 15.5693 42.0508L15.5645 41.1523C15.597 41.1556 15.6361 41.1589 15.6816 41.1621C15.7305 41.1654 15.7695 41.167 15.7988 41.167C15.9941 41.167 16.1569 41.1426 16.2871 41.0938C16.4173 41.0482 16.5231 40.9733 16.6045 40.8691C16.6891 40.765 16.7607 40.625 16.8193 40.4492L17.2002 39.4238ZM16.3896 34.7168L17.6445 38.6719L17.8545 39.9121L17.0391 40.1221L15.1201 34.7168H16.3896ZM20.2666 37.417V37.3047C20.2666 36.9238 20.3219 36.5706 20.4326 36.2451C20.5433 35.9163 20.7028 35.6315 20.9111 35.3906C21.1227 35.1465 21.3799 34.9577 21.6826 34.8242C21.9886 34.6875 22.3337 34.6191 22.7178 34.6191C23.1051 34.6191 23.4502 34.6875 23.7529 34.8242C24.0589 34.9577 24.3177 35.1465 24.5293 35.3906C24.7409 35.6315 24.902 35.9163 25.0127 36.2451C25.1234 36.5706 25.1787 36.9238 25.1787 37.3047V37.417C25.1787 37.7979 25.1234 38.151 25.0127 38.4766C24.902 38.8021 24.7409 39.0869 24.5293 39.3311C24.3177 39.5719 24.0605 39.7607 23.7578 39.8975C23.4551 40.0309 23.1117 40.0977 22.7275 40.0977C22.3402 40.0977 21.9935 40.0309 21.6875 39.8975C21.3848 39.7607 21.1276 39.5719 20.916 39.3311C20.7044 39.0869 20.5433 38.8021 20.4326 38.4766C20.3219 38.151 20.2666 37.7979 20.2666 37.417ZM21.4434 37.3047V37.417C21.4434 37.6546 21.4678 37.8792 21.5166 38.0908C21.5654 38.3024 21.6419 38.488 21.7461 38.6475C21.8503 38.807 21.9837 38.9323 22.1465 39.0234C22.3092 39.1146 22.5029 39.1602 22.7275 39.1602C22.9456 39.1602 23.1344 39.1146 23.2939 39.0234C23.4567 38.9323 23.5902 38.807 23.6943 38.6475C23.7985 38.488 23.875 38.3024 23.9238 38.0908C23.9759 37.8792 24.002 37.6546 24.002 37.417V37.3047C24.002 37.0703 23.9759 36.849 23.9238 36.6406C23.875 36.429 23.7969 36.2419 23.6895 36.0791C23.5853 35.9163 23.4518 35.7894 23.2891 35.6982C23.1296 35.6038 22.9391 35.5566 22.7178 35.5566C22.4964 35.5566 22.3044 35.6038 22.1416 35.6982C21.9821 35.7894 21.8503 35.9163 21.7461 36.0791C21.6419 36.2419 21.5654 36.429 21.5166 36.6406C21.4678 36.849 21.4434 37.0703 21.4434 37.3047ZM29.3438 38.7549V34.7168H30.5254V40H29.4121L29.3438 38.7549ZM29.5098 37.6562L29.9053 37.6465C29.9053 38.0013 29.8662 38.3285 29.7881 38.6279C29.71 38.9242 29.5895 39.1829 29.4268 39.4043C29.264 39.6224 29.0557 39.7933 28.8018 39.917C28.5479 40.0374 28.2435 40.0977 27.8887 40.0977C27.6315 40.0977 27.3955 40.0602 27.1807 39.9854C26.9658 39.9105 26.7803 39.7949 26.624 39.6387C26.471 39.4824 26.3522 39.279 26.2676 39.0283C26.1829 38.7777 26.1406 38.4782 26.1406 38.1299V34.7168H27.3174V38.1396C27.3174 38.3317 27.3402 38.4928 27.3857 38.623C27.4313 38.75 27.4932 38.8525 27.5713 38.9307C27.6494 39.0088 27.7406 39.0641 27.8447 39.0967C27.9489 39.1292 28.0596 39.1455 28.1768 39.1455C28.512 39.1455 28.7757 39.0804 28.9678 38.9502C29.1631 38.8167 29.3014 38.6377 29.3828 38.4131C29.4674 38.1885 29.5098 37.9362 29.5098 37.6562Z" fill="white"/>
<mask id="mask0_8_1824" style="mask-type:alpha" maskUnits="userSpaceOnUse" x="0" y="0" width="47" height="46">
<rect x="0.000244141" width="46" height="46" fill="#ADAA59"/>
</mask>
<g mask="url(#mask0_8_1824)">
<rect x="13.9172" y="-7" width="7" height="26" transform="rotate(50 13.9172 -7)" fill="#CC0000"/>
<rect x="48.9172" y="30" width="7" height="26" transform="rotate(50 48.9172 30)" fill="#CC0000"/>
</g>
</svg>
