<svg width="63" height="62" viewBox="0 0 63 62" fill="none" xmlns="http://www.w3.org/2000/svg">
<path d="M0 4V0H3.99707H59.998L0 60.001V4Z" fill="#CC0000"/>
<path d="M9.37482 24.1145L15.5097 17.9797L16.897 19.367L10.7622 25.5019L9.37482 24.1145ZM11.0931 27.3347L18.5389 19.8889L19.9645 21.3144L12.5186 28.7602L11.0931 27.3347ZM13.9314 29.6385L20.9954 22.5745L22.3955 23.9745L15.3315 31.0385L13.9314 29.6385ZM10.5076 20.6907L12.0222 19.1761L16.4261 23.58L14.9115 25.0946L10.5076 20.6907ZM16.8843 24.0636L18.3989 22.549L23.7956 27.9457C24.1774 28.3275 24.432 28.6754 24.5592 28.9893C24.695 29.2948 24.6992 29.6385 24.572 30.0203C24.4192 30.3937 24.1732 30.7755 23.8337 31.1658C23.5028 31.5646 23.0998 32.0016 22.6246 32.4768C22.37 32.2901 22.0561 32.095 21.6827 31.8913C21.3094 31.6877 20.9615 31.5349 20.639 31.4331C20.9615 31.1276 21.2797 30.8264 21.5936 30.5294C21.8991 30.224 22.1027 30.0203 22.2046 29.9185C22.2979 29.8082 22.3488 29.7233 22.3573 29.6639C22.3743 29.596 22.3403 29.5197 22.2555 29.4348L16.8843 24.0636ZM16.4643 31.2804L16.897 29.4475C17.2789 29.4391 17.6819 29.4518 18.1062 29.4857C18.5304 29.5197 18.942 29.5663 19.3408 29.6257C19.7396 29.6682 20.079 29.736 20.359 29.8294L19.939 31.8277C19.6675 31.7258 19.3365 31.641 18.9462 31.5731C18.5474 31.4967 18.1316 31.4373 17.6989 31.3949C17.2661 31.3355 16.8546 31.2973 16.4643 31.2804ZM9.74393 35.0478C10.0664 34.5387 10.4228 33.9532 10.8131 33.2914C11.2119 32.621 11.6234 31.9125 12.0477 31.1658C12.472 30.4021 12.892 29.6427 13.3078 28.8875L14.8478 30.0458C14.2963 31.0895 13.732 32.1544 13.155 33.2405C12.578 34.3096 12.0519 35.2769 11.5768 36.1424L9.74393 35.0478ZM5.25098 25.9983L6.65105 24.5982L18.6026 36.5497L17.2025 37.9498L5.25098 25.9983ZM4.22001 28.3275L5.72191 27.2583C6.22254 27.8778 6.71469 28.5142 7.19835 29.1675C7.67352 29.8124 8.10203 30.4446 8.48387 31.064C8.86571 31.6834 9.17118 32.2604 9.40028 32.795C9.25603 32.8035 9.07359 32.8332 8.85298 32.8841C8.63236 32.935 8.41174 32.9859 8.19113 33.0368C7.96202 33.0792 7.7711 33.1259 7.61837 33.1768C7.41472 32.7017 7.13471 32.1925 6.77833 31.6495C6.43043 31.0979 6.03586 30.5422 5.59463 29.9821C5.15339 29.4051 4.69519 28.8536 4.22001 28.3275ZM6.32012 29.7148L10.113 25.9219L11.564 27.3729L7.47836 31.4586L6.32012 29.7148ZM32.4378 18.5143L32.5142 16.4269C33.176 16.1893 33.8591 15.956 34.5634 15.7268C35.2677 15.4977 35.9465 15.2941 36.5999 15.1159C37.2617 14.9292 37.8302 14.785 38.3054 14.6832L37.9236 17.1269C37.4738 17.1863 36.9393 17.2881 36.3198 17.4324C35.7089 17.5682 35.064 17.7294 34.3852 17.9161C33.7149 18.0942 33.0657 18.2936 32.4378 18.5143ZM23.3119 23.0581L35.238 11.1321L36.6762 12.5703L24.7502 24.4964L23.3119 23.0581ZM22.23 17.9542L30.0704 10.1138L31.4705 11.5139L23.6301 19.3543L22.23 17.9542ZM19.6081 11.5394L21.0336 10.1138L29.2813 18.3615L27.8558 19.7871L19.6081 11.5394ZM22.2682 8.87922L23.7192 7.42824L31.9796 15.6887L30.5286 17.1396L22.2682 8.87922ZM18.4626 15.6887L27.983 6.16818L34.627 12.8122L33.0742 14.365L27.843 9.13378L21.3518 15.625L26.583 20.8562L25.1065 22.3326L18.4626 15.6887ZM28.3649 20.6016L30.7068 20.1434C30.6389 20.7374 30.5159 21.395 30.3377 22.1163C30.1595 22.8205 29.9431 23.5291 29.6886 24.2418C29.4425 24.9631 29.1795 25.6249 28.8995 26.2274C28.6025 26.2019 28.2249 26.1977 27.7667 26.2147C27.3254 26.2316 26.9351 26.2656 26.5957 26.3165C26.9097 25.714 27.1939 25.0649 27.4485 24.3691C27.6945 23.6648 27.8982 22.986 28.0594 22.3326C28.2206 21.6623 28.3225 21.0853 28.3649 20.6016Z" fill="white"/>
</svg>
