<svg width="114" height="114" viewBox="0 0 114 114" fill="none" xmlns="http://www.w3.org/2000/svg">
<path d="M0 3C0 1.34315 1.34315 0 3 0H114V111C114 112.657 112.657 114 111 114H0V3Z" fill="#FAF9F7"/>
<mask id="mask0_89_2568" style="mask-type:alpha" maskUnits="userSpaceOnUse" x="9" y="9" width="96" height="96">
<rect x="9" y="9" width="96" height="96" fill="#D9D9D9"/>
</mask>
<g mask="url(#mask0_89_2568)">
<path fill-rule="evenodd" clip-rule="evenodd" d="M70.3505 27.4995C70.4604 26.8954 70.5701 26.2907 70.6801 25.6864H70.5153V25.1919H70.3505V24.5326H70.1856C69.9985 24.3482 70.1873 24.4626 69.856 24.3678C69.8011 24.5326 69.7461 24.6974 69.6912 24.8623C69.4714 24.9173 69.2516 24.9722 69.0318 25.0271C68.9299 24.8168 68.8714 24.6757 68.7021 24.5326C68.7662 24.0004 68.8515 24.0511 69.0318 23.7085C69.0564 23.6618 70.2877 23.6167 70.4352 23.5675C70.0457 22.9339 70.8065 22.118 70.6028 21.4028C70.392 21.4951 69.0318 22.0687 69.0318 22.3898V22.5547H68.3725C68.3176 22.7195 68.2626 22.8843 68.2076 23.0491C68.0428 23.1042 67.878 23.1591 67.7133 23.214V23.0491H67.3835C67.2696 22.6001 67.1602 22.6766 67.0539 22.225H66.7242V22.3898H66.8891C66.9533 22.9859 67.1781 23.5802 67.5483 23.8733V24.5326C67.4384 24.5877 67.3286 24.6425 67.2187 24.6974C66.9381 25.1705 66.9565 25.6775 66.5593 26.0161V26.1809H67.7133V26.0161C69.4522 26.0144 69.1815 26.7327 70.1856 27.3347V27.4995H70.3505Z" fill="#B5A484"/>
<path fill-rule="evenodd" clip-rule="evenodd" d="M42.9534 23.713C42.6344 24.0852 42.2362 24.3677 41.8355 24.3677H41.6707V24.5325C42.0552 24.5876 42.4399 24.6426 42.8245 24.6974C42.8795 24.8073 42.9344 24.9172 42.9893 25.027H43.319C43.4208 25.0941 43.438 25.2487 43.6486 25.3567C43.7704 25.6834 43.6984 25.973 43.8135 26.3457H43.9783V27.3346H44.1431V27.4995H44.308C44.7475 27.005 45.1871 26.5105 45.6266 26.016H46.6155V26.1808H47.9342C47.7257 25.7274 46.7589 24.4678 46.9452 23.8732H47.11V23.5436H47.2749C47.4702 23.1613 47.6716 22.6472 47.7693 22.2249C47.2335 22.2965 46.2877 22.6177 45.7724 22.4521C45.2826 22.2943 44.6824 21.5137 44.2918 21.1732C44.1589 21.0573 43.984 20.9333 43.8217 21.0022C43.7533 21.4715 43.6849 21.9406 43.6165 22.4099C43.5627 22.7783 43.3068 23.3004 42.9534 23.713Z" fill="#B5A484"/>
<path fill-rule="evenodd" clip-rule="evenodd" d="M60.4609 21.2361V21.0713H59.6367C59.5619 21.2956 59.5594 21.5021 59.342 21.5705C59.2647 21.5948 58.9005 21.4687 58.8856 21.4954C58.9891 21.309 58.8899 21.0625 58.7214 20.9318C58.5713 20.8153 58.2385 20.8242 58.1298 20.6976C58.0206 20.5704 58.0529 20.2473 57.9884 20.0823H57.8236V19.7526H57.6588C57.4708 19.4007 57.6489 19.3885 57.3291 19.0933C57.2299 18.7642 57.352 18.9514 57.1643 18.7637C56.9398 19.2606 56.5534 20.2442 56.1753 20.5768C55.9205 20.8262 54.682 21.0446 54.198 21.0713C54.2255 21.0698 55.0418 22.2285 55.3752 22.276C55.4509 22.2867 55.5285 22.2684 55.6042 22.2801C55.7692 22.3057 55.8831 22.472 55.9042 22.6376C55.9456 22.9643 55.8129 23.2874 55.4418 23.2683C55.4558 23.4367 55.2048 24.8586 55.1865 24.8623C55.5381 24.7898 56.201 24.5861 56.4696 24.3425C56.7039 24.1297 56.6599 23.8302 56.9258 23.6321C57.6138 23.1196 57.7273 23.9057 58.0344 24.2551C58.0961 24.3252 58.9586 24.8623 58.9781 24.8623H59.1422V23.7085H58.9774V22.5547C59.4719 22.1153 59.9666 21.6757 60.4609 21.2361Z" fill="#B5A484"/>
<path fill-rule="evenodd" clip-rule="evenodd" d="M72.8229 24.5325V24.3676C72.2681 24.1102 71.7093 23.8791 71.1474 23.6318C71.0786 24.0039 71.0099 24.3762 70.9413 24.7484C70.9288 24.8157 70.9216 24.8974 70.975 24.9396C71.0243 24.979 71.0961 24.9605 71.1557 24.9403C71.2105 24.9216 72.8229 24.4766 72.8229 24.5325Z" fill="#B5A484"/>
<path fill-rule="evenodd" clip-rule="evenodd" d="M81.8882 29.972H81.7233V29.8071H81.8882C81.9981 29.148 82.108 28.4885 82.2179 27.8292C81.1074 28.0705 80.4 29.4317 79.1957 28.4832C78.9932 28.3238 78.8044 27.4995 78.426 27.4995C78.3713 27.4995 78.3168 27.4995 78.262 27.4997C78.3062 28.1183 78.7433 29.1575 78.3767 29.7247C78.0832 30.1792 77.0513 30.5429 76.5977 30.8378C76.4665 30.9232 76.3213 31.0964 76.4288 31.2103C76.6674 31.4637 78.2724 31.0661 78.7847 31.349C79.0289 31.4839 79.2289 31.7363 79.2189 32.016C79.1971 32.5992 79.1989 32.5245 79.458 32.9849C79.5383 33.1275 80.2429 33.7965 80.1727 33.93C80.2588 33.7665 80.7961 31.9585 80.8993 31.9499C81.5586 31.895 82.2181 31.84 82.8772 31.7851C82.7645 30.7971 82.1868 30.75 81.8882 29.972Z" fill="#B5A484"/>
<path fill-rule="evenodd" clip-rule="evenodd" d="M38.0564 30.9961C37.9468 30.8236 37.7578 30.722 37.5944 30.5991C37.3426 30.4095 36.7777 30.0133 36.6997 29.7077C36.6368 29.4603 36.692 29.2003 36.7385 28.9491C36.8581 28.3013 36.9178 27.6425 36.9166 26.9839C36.9165 26.9006 36.9077 26.8032 36.8372 26.7592C36.7578 26.7099 36.6559 26.7613 36.5774 26.8124C35.9245 27.2387 35.0577 28.2689 34.2525 28.2997C33.6853 28.3214 33.0237 27.8299 32.6049 27.8291C32.4364 27.8288 32.2553 27.8202 32.1129 27.8618C32.4026 28.4414 32.7585 29.3834 32.5213 30.0146C32.7789 30.0421 33.0273 30.1506 33.2225 30.3208C33.1381 30.2471 33.8965 29.4845 34.0287 29.4637C34.0967 29.4528 34.1562 29.4502 34.209 29.4541C34.535 29.479 34.6054 29.7645 34.8812 30.0505C34.7421 30.0739 34.5906 30.1003 34.4181 30.1367C34.2949 30.602 34.1234 30.6101 33.9237 30.9609C33.2182 30.8758 33.1074 30.6422 32.2754 30.6312C31.967 31.0052 31.5437 31.1745 31.2864 31.6202H31.1216V31.785C31.9456 31.8399 32.7699 31.8949 33.594 31.9498V32.2795C33.7038 32.3344 33.8137 32.3894 33.9237 32.4443C33.9786 32.6091 34.0334 32.774 34.0885 32.9388C34.3491 33.1557 34.2575 32.7713 34.583 33.2685H34.9127C35.1324 32.774 35.3523 32.2795 35.572 31.785C36.32 31.6604 36.9959 31.5422 37.7553 31.5509C37.8242 31.5518 37.8952 31.5521 37.9587 31.5256C38.1472 31.4464 38.166 31.1687 38.0564 30.9961Z" fill="#B5A484"/>
<path fill-rule="evenodd" clip-rule="evenodd" d="M33.5935 86.5085V86.3437H33.9232V86.1788C34.6112 85.9631 34.8856 86.6084 35.2418 86.6734H35.4066V86.5085H36.066V84.8602C36.6349 84.7152 37.1324 84.166 37.3846 83.7065H37.5494V83.5416C36.9723 83.2986 36.3628 83.0638 35.5715 83.0471C35.4615 82.7175 35.3516 82.3878 35.2418 82.0582H35.077C34.8709 81.6008 35.1223 81.5657 34.7473 81.234C34.6481 80.905 34.7702 81.0922 34.5825 80.9043C34.2528 81.5086 33.9232 82.1132 33.5935 82.7175C33.0562 82.9207 31.894 83.0043 31.2859 83.0471C31.5626 83.6454 32.0479 84.2176 32.6045 84.5305C32.5496 85.1897 32.4946 85.8493 32.4397 86.5085C32.8999 86.5752 33.0629 86.7228 33.5935 86.5085Z" fill="#B5A484"/>
<path fill-rule="evenodd" clip-rule="evenodd" d="M79.746 80.9043C79.4712 81.6185 79.1966 82.3329 78.9218 83.0471C78.2076 83.1571 77.4932 83.2668 76.7791 83.3768V83.7065C76.889 83.7613 76.9988 83.8164 77.1087 83.8712V84.0361H77.4384C77.6581 84.3109 77.8779 84.5854 78.0977 84.8602H78.4274V85.8492H78.2625V87.1678C78.819 86.9177 79.5384 86.6252 79.9108 86.1788H80.0756C80.1647 85.966 79.5978 84.7693 80.5888 85.3376C80.8273 85.4741 80.9398 85.7564 81.1431 85.9415C81.3466 86.1268 81.7696 86.1281 81.8087 85.8556C81.8228 85.7561 81.7759 85.6593 81.7399 85.5654C81.4597 84.8327 82.124 83.6797 82.7129 83.212V83.0471C82.0537 82.9371 81.3943 82.8274 80.7349 82.7175V83.0471H80.5701C80.4829 82.7994 80.3636 82.6529 80.4053 82.223C80.4278 81.991 80.598 82.2895 80.5701 82.0582H80.4053C80.2571 81.6322 80.2076 81.3298 79.9108 81.0692V80.9043H79.746Z" fill="#B5A484"/>
<path fill-rule="evenodd" clip-rule="evenodd" d="M46.2858 88.816C44.9787 88.7375 44.9739 87.6853 44.1432 87.1679C44.0964 87.1387 43.8471 88.7926 43.7618 88.9544C43.4306 89.5816 42.5158 89.8666 41.8911 90.0893C42.2587 90.2788 42.6264 90.4686 42.9942 90.6583C43.1992 90.7639 43.4207 90.873 43.6495 90.8436C43.873 90.8146 44.0568 90.6596 44.2613 90.565C44.7105 90.3576 44.9352 90.7779 45.2968 90.9588C45.4626 91.2367 45.4603 91.6662 45.4617 92.1126C46.2177 92.2723 46.8581 92.5823 47.7692 92.607C47.6638 92.1081 47.2695 91.2376 46.9451 90.9588C47.026 89.7545 47.7223 89.5083 47.9341 88.4863C47.3847 88.5412 46.8352 88.5963 46.2858 88.6511V88.816Z" fill="#B5A484"/>
<path fill-rule="evenodd" clip-rule="evenodd" d="M70.1856 87.1675C69.7461 87.7168 69.3066 88.2664 68.867 88.8157C68.0292 88.7911 67.2843 88.612 66.5593 88.486C66.6881 89.0941 67.1427 89.9654 67.5483 90.2991C67.433 91.2387 66.8989 91.7278 66.7242 92.6068C67.1811 92.5938 67.9741 92.496 68.2076 92.2772C69.7049 92.3306 69.5456 93.4487 70.6801 93.7606C70.735 92.9914 70.7901 92.2221 70.845 91.453C71.3419 91.2285 72.3255 90.8421 72.658 90.464H72.8229V90.2991C72.1802 90.0366 71.2751 89.7993 70.845 89.3101H70.6801C70.6252 88.7059 70.5701 88.1013 70.5153 87.4971H70.3505V87.1675H70.1856Z" fill="#B5A484"/>
<path fill-rule="evenodd" clip-rule="evenodd" d="M53.982 93.703C54.2976 93.8485 54.7443 93.8953 55.0448 93.9475C55.4178 94.0124 55.7967 94.0692 56.1752 94.0903C56.3997 94.5872 56.7859 95.5708 57.1642 95.9034V96.0682H57.329C57.5097 95.2846 57.9962 94.8792 58.1531 94.0903C58.9223 93.9805 59.6917 93.8706 60.4607 93.7607C60.2013 93.3087 59.4313 92.5327 58.9773 92.2771C58.9922 91.2201 59.2313 90.6883 59.307 89.8047C58.7052 89.976 58.2255 90.4481 57.6369 90.6597C57.3735 90.7547 57.0641 90.8212 56.7988 90.6932C56.6333 90.6133 56.5667 90.4639 56.4154 90.3714C56.2647 90.2791 56.0687 90.271 55.9039 90.2151C55.7667 90.1685 55.433 89.8047 55.3511 89.8047H55.1862C55.2136 90.1649 55.3289 91.0845 55.5159 91.2882C55.5081 91.5712 55.4605 91.8567 55.3377 92.1139C55.2698 92.2562 55.209 92.4106 55.1078 92.5338C55.0049 92.6589 54.8592 92.726 54.7376 92.8323C54.5584 92.989 54.3746 93.0973 54.1954 93.2353C54.0755 93.3274 53.9556 93.4197 53.8358 93.5119C53.8094 93.5321 53.7802 93.5661 53.7984 93.594C53.8516 93.6357 53.9138 93.6716 53.982 93.703Z" fill="#B5A484"/>
<path fill-rule="evenodd" clip-rule="evenodd" d="M43.7367 91.6264C43.6932 92.142 43.9778 93.1524 43.9778 93.2663V93.4309C43.9778 93.1893 45.3232 92.9802 45.0309 92.444C44.9767 92.3442 44.8852 92.2714 44.8084 92.1878C44.6337 91.9971 44.532 91.7453 44.3419 91.5699C43.9167 91.1774 43.7636 91.3068 43.7367 91.6264Z" fill="#B5A484"/>
<path d="M83.0426 22.2252H83.2075C83.0975 22.4449 82.9878 22.6648 82.8778 22.8845C83.1743 23.0567 83.5996 23.3064 83.8667 23.5438C83.9767 23.7086 84.0865 23.8735 84.1965 24.0383H84.5261C84.7458 24.313 84.9657 24.5878 85.1854 24.8624H85.5151V25.0272C85.8003 25.2623 85.9121 25.412 86.3392 25.5217C86.4388 24.4932 87.1513 24.5181 87.9875 24.6976C87.6029 24.2582 87.2183 23.8186 86.8337 23.379H86.504C86.2843 23.1044 86.0645 22.8296 85.8447 22.5548H85.5151C85.3502 22.3351 85.1854 22.1152 85.0206 21.8955H84.6909C84.5809 21.7307 84.4712 21.5658 84.3612 21.401H84.0317C83.9217 21.2362 83.8119 21.0714 83.702 20.9065H83.3723C83.3174 20.7967 83.2624 20.6868 83.2075 20.5769H82.8778C82.8229 20.4671 82.7679 20.3572 82.713 20.2472H82.3833C82.3284 20.1374 82.2734 20.0275 82.2184 19.9175H81.8888V19.7527C81.7239 19.6978 81.5592 19.6428 81.3943 19.5879C81.2951 19.9169 81.4173 19.7298 81.2295 19.9175C81.3322 21.4491 82.6874 20.9576 83.0426 22.2252Z" fill="#B5A484"/>
<path d="M93.0523 71.5036C93.1523 71.0486 93.2804 70.6001 93.4322 70.1597H87.3117C87.1193 70.2528 86.9004 70.3153 86.6685 70.3549C86.6763 70.8262 86.7263 71.0605 86.8332 71.3438H87.9871C88.097 71.179 88.207 71.0142 88.3168 70.8493C88.633 70.6222 88.5607 70.9296 88.8112 70.5197C89.562 70.5622 89.5151 70.7531 89.965 71.0142V71.3438C90.1758 71.3438 93.0289 71.6128 93.0523 71.5036Z" fill="#B5A484"/>
<path d="M92.9672 44.8742C92.8683 44.8015 92.7499 44.7259 92.6025 44.642C92.7087 44.2517 92.6489 44.3331 92.9323 44.1475C92.8255 44.0325 91.8381 43.5845 91.4488 43.8178V43.9827H91.1191C91.3089 44.2029 91.4193 44.2426 91.7785 44.3123C91.8775 44.6413 91.7555 44.4542 91.9433 44.642C91.8973 44.7223 91.8457 44.7997 91.7898 44.8742H92.9672Z" fill="#B5A484"/>
<path d="M62.4393 43.8175V43.9823H62.2744V44.8739H78.013C78.0222 44.7343 78.0458 44.5991 78.0981 44.4768C78.2079 44.4219 78.3177 44.3669 78.4277 44.312V43.9823C77.2726 43.5454 75.1043 43.8164 73.6476 43.8175C73.0973 43.8178 72.2937 43.7155 71.9994 43.9823C71.9994 43.9823 71.3584 44.0056 71.6697 44.1472C71.7096 44.3767 71.8256 44.0791 71.8345 44.312H70.8455V43.9823C70.1092 43.858 68.8554 43.6645 67.8786 43.8175C67.7149 43.8431 67.247 44.1749 66.8896 43.9823V43.8175H62.4393Z" fill="#B5A484"/>
<path d="M89.2733 44.874C89.2291 44.7417 89.185 44.6091 89.141 44.4769H88.9762C88.8662 44.3121 88.7563 44.1473 88.6464 43.9824H85.1851V44.1473H85.3499C85.3016 44.3896 85.253 44.6317 85.2045 44.874H89.2733Z" fill="#B5A484"/>
<path d="M87.1631 26.1812C87.322 26.7505 87.7909 27.1178 88.1521 27.4999C88.2621 27.5547 88.3718 27.6098 88.4818 27.6647V27.9943C88.9763 28.4339 89.4709 28.8735 89.9652 29.313V29.6426C90.2949 29.9174 90.6246 30.1922 90.9542 30.4668V30.7964C91.1739 30.9613 91.3938 31.1261 91.6135 31.2909V31.6206C91.7784 31.7305 91.9432 31.8405 92.108 31.9502V32.2799C92.4377 32.5547 92.7673 32.8294 93.097 33.104C93.1519 33.3788 93.2069 33.6536 93.2618 33.9282H93.4267V34.2578C93.5366 34.3127 93.6463 34.3678 93.7563 34.4227V34.7523C93.8663 34.8072 93.976 34.8623 94.086 34.9171V35.2468C94.1959 35.3017 94.3057 35.3567 94.4156 35.4116V35.7413H94.5804V36.071H94.7453V36.4006H94.9101V36.7303H95.075C95.3127 37.1519 95.3913 37.5808 95.7342 37.8841V38.0489C96.0201 37.8595 96.2284 37.7 96.3936 37.3896H96.5585C96.2759 36.2782 95.2502 36.2524 94.7453 35.4116H94.5804C94.6353 35.1919 94.6904 34.972 94.7453 34.7523H94.9101V34.5875H94.7453V33.4337H94.5804V32.2799C94.1959 31.7305 93.8112 31.181 93.4267 30.6316C93.2618 30.5218 93.097 30.4119 92.9322 30.3019V29.9723C92.8222 29.9174 92.7125 29.8623 92.6025 29.8075C92.276 29.3291 92.3018 29.1272 91.7784 28.8185V28.6537C91.2634 28.9223 90.7992 29.1526 90.2949 28.6537C89.8464 28.5279 89.9197 28.6144 89.8004 28.1592C89.5149 27.7235 90.1881 27.4341 90.4597 27.0054C90.1301 26.7307 89.8004 26.456 89.4707 26.1812V26.0164C89.3059 26.0713 89.1411 26.1263 88.9763 26.1812C89.0312 26.0164 89.0862 25.8516 89.1411 25.6867C88.7566 25.3571 88.3718 25.0274 87.9873 24.6978C87.9243 25.3699 87.613 25.9022 87.1631 26.1812Z" fill="#B5A484"/>
<path d="M97.603 70.16C97.5807 70.2205 97.5616 70.2846 97.5479 70.3552C97.3622 70.2144 97.5222 70.3773 97.3831 70.1903C97.0035 70.2015 96.7235 70.2061 96.5028 70.16H94.123C94.0983 70.5391 94.0827 70.9347 94.0865 71.3441H97.3831C97.438 71.0695 97.4929 70.7948 97.5479 70.52C98.2071 70.5748 98.8665 70.6299 99.5259 70.6848V70.52H100.515C100.57 70.1903 100.625 69.8607 100.68 69.531C100.029 69.5063 99.3457 69.4199 98.7807 69.4631C98.7102 69.6962 98.6381 69.9285 98.5636 70.16H97.603Z" fill="#B5A484"/>
<path d="M96.2284 35.2464C96.1457 34.5449 95.8767 34.5059 95.7339 33.9277H95.4043C95.3051 34.2567 95.4271 34.0697 95.2395 34.2574C95.3081 34.9564 95.5991 35.1371 96.2284 35.2464Z" fill="#B5A484"/>
<path d="M97.3824 41.5099C97.6022 42.279 97.8221 43.0484 98.0418 43.8175C97.1135 43.8078 96.9401 43.8577 96.3936 44.1472C96.4087 44.5108 96.4594 44.727 96.5429 44.8739H98.5631C99.2583 47.033 99.7794 49.2672 100.113 51.5603C100.22 51.4908 100.352 51.4371 100.514 51.3996C100.701 51.215 100.513 51.3294 100.844 51.2348C101.009 51.4545 101.174 51.6744 101.338 51.8941H101.503V53.0479H101.668C101.794 53.4964 101.707 53.4231 102.162 53.5424C101.974 50.547 101.367 47.5095 100.514 45.1361V44.4769H100.349V43.9823H100.185V43.4878H100.02V42.9933H99.8549V42.4989H99.6901C99.6353 42.1692 99.5802 41.8396 99.5253 41.5099H99.3604V41.1803H99.1956V40.6857H99.0307C98.9208 40.3561 98.811 40.0264 98.7011 39.6968H98.5363V39.3671H98.3714V39.0375H98.2066V38.543H98.0418V38.2133H97.877C97.6925 37.8715 97.8369 37.8177 97.5473 37.554V37.3892H97.3824C97.3959 38.0661 97.465 38.2779 97.7122 38.7078C97.8221 38.7627 97.9319 38.8177 98.0418 38.8726C97.9749 39.5249 97.6218 40.1646 98.2066 40.6857C98.1193 41.4471 97.9699 41.2948 97.3824 41.5099ZM99.6901 45.7954V46.4548H99.5253C99.4288 46.2031 99.3936 46.1866 99.3604 45.7954H99.6901Z" fill="#B5A484"/>
<path d="M22.1691 44.8739C22.2585 44.6762 22.391 44.5859 22.55 44.312C23.2029 44.3759 23.4386 44.5788 23.8687 44.8064V44.8739H27.5043C27.4461 44.7964 27.3881 44.7191 27.3301 44.6416H27.0004C26.8356 44.4218 26.6708 44.202 26.5059 43.9823C25.5465 43.9492 24.0317 43.4967 22.8797 43.8175V43.9823H21.7259V43.8175C20.8441 43.8094 19.7165 43.7477 19.0886 43.9823V44.4768H19.2535V44.6416C19.8027 44.6965 20.3522 44.7514 20.9018 44.8064V44.8739H22.1691Z" fill="#B5A484"/>
<path d="M34.0882 70.1597H31.2561C31.2657 70.1704 31.2749 70.1813 31.2861 70.19H31.6158C31.73 70.2696 31.7313 70.4053 31.9454 70.5197V70.6845C31.6158 70.7394 31.2861 70.7945 30.9565 70.8493V70.5197C30.5589 70.4082 30.5711 70.4628 30.4959 70.1597H27.5723C27.6015 70.3346 27.6307 70.5096 27.6599 70.6845C27.3302 70.7394 27.0006 70.7945 26.6709 70.8493C26.2331 70.739 25.811 70.5511 25.1874 70.5197C24.9692 70.7865 24.7169 70.8596 24.5281 71.179H24.3633V71.3438H34.4179C34.1982 71.0692 33.9783 70.7945 33.7585 70.5197C33.8683 70.4648 33.9783 70.4097 34.0882 70.3549V70.1597Z" fill="#B5A484"/>
<path d="M41.011 44.642C40.7363 44.5871 40.4615 44.5321 40.1869 44.4772C40.0769 44.3124 39.967 44.1475 39.8572 43.9827H39.3627V43.8179C37.9877 43.3628 36.7591 44.5677 35.9013 43.8179C34.5323 43.8093 32.5269 43.5845 31.4509 43.9827C31.6603 44.329 32.0839 44.5804 32.1508 44.8743H41.1658C41.1142 44.7968 41.0626 44.7195 41.011 44.642Z" fill="#B5A484"/>
<path d="M58.3179 44.6417H58.4828C58.6405 44.3472 58.7031 44.3762 58.8124 43.9824C57.4099 43.9403 55.7585 43.7257 54.3621 43.9824C54.3917 44.2796 54.4215 44.5768 54.4512 44.874H58.4507C58.4065 44.7965 58.3621 44.7192 58.3179 44.6417Z" fill="#B5A484"/>
<path d="M53.6747 44.3083C53.6286 44.1967 53.5778 44.079 53.4792 44.0091C53.371 43.9326 53.2286 43.93 53.0959 43.9302C52.2627 43.9323 51.4167 43.8933 50.5923 43.992C50.6083 44.0178 50.7593 44.1205 50.8438 44.152L50.9007 43.9828V44.1476C50.9007 44.1667 50.877 44.1642 50.8438 44.152L50.7548 44.4163C50.7914 44.5689 50.8278 44.7217 50.8644 44.8743H53.8687C53.8259 44.6813 53.7506 44.4916 53.6747 44.3083Z" fill="#B5A484"/>
<path d="M79.0865 70.1905C79.0865 70.1905 79.077 70.1776 79.0608 70.1602H78.592V70.1905H77.9327V70.1602H75.07C75.0903 70.1702 75.1105 70.1803 75.1306 70.1905C75.0926 70.9004 75.0288 70.7489 74.8009 71.1794C74.0868 71.1246 73.3724 71.0696 72.6582 71.0146C72.6033 70.9047 72.5483 70.7949 72.4933 70.685C72.2737 70.6301 72.0538 70.5751 71.8341 70.5201C71.8321 70.3932 71.8327 70.2739 71.8362 70.1602H35.0965C35.1428 70.2168 35.1863 70.3134 35.242 70.5201H35.4068C35.3519 70.7398 35.2969 70.9597 35.242 71.1794H34.9124V71.3443H39.0331H49.0876H84.6907C84.6996 70.9749 84.7257 70.5546 84.7191 70.1602H79.2382C79.1876 70.1702 79.1371 70.1803 79.0865 70.1905Z" fill="#B5A484"/>
<path d="M48.7584 44.1475C48.4292 44.0483 48.6164 44.1705 48.4287 43.9827H46.9452C46.8902 44.1475 46.8353 44.3124 46.7805 44.4772C46.6705 44.5321 46.5605 44.5871 46.4507 44.642C46.0926 44.8942 45.6392 44.2659 45.4618 43.8179C44.8574 43.8727 44.2529 43.9278 43.6487 43.9827C43.7584 44.1475 43.8684 44.3124 43.9784 44.4772H44.1431C44.1763 44.6095 44.2094 44.7419 44.2424 44.8743H48.6372C48.6776 44.632 48.718 44.3897 48.7584 44.1475Z" fill="#B5A484"/>
<path d="M48.099 15.3021C48.6484 15.2472 49.1979 15.1922 49.7473 15.1373V14.9724C50.4064 14.9176 51.0659 14.8625 51.7253 14.8076V14.6428H52.3846C52.4395 14.5328 52.4943 14.4231 52.5494 14.3131H53.0439V14.1483H54.0329V13.9835C54.2943 13.9759 54.4268 14.4354 54.5273 14.478C55.3462 14.8239 55.5613 13.9114 56.3404 14.1483V14.3131H56.6701V14.478H58.4832C58.8408 14.4967 63.3956 14.6748 63.395 14.711C63.3991 14.5113 63.4031 14.3115 63.4072 14.1115C63.4085 14.0519 63.4088 13.9887 63.379 13.9368C63.3351 13.861 63.2412 13.8327 63.1555 13.8144C62.6712 13.7102 62.1459 13.7202 61.6785 13.5459C61.5985 13.516 60.746 12.8297 61.1205 12.8297H61.4502V12.6648C60.0217 12.61 58.593 12.5549 57.1646 12.5C56.5285 12.5198 56.2562 12.9635 55.846 12.8297C55.7909 12.7197 55.736 12.61 55.6812 12.5C55.2069 12.3091 52.5398 12.6924 52.3846 12.8297H52.0549C52.3432 13.144 52.1581 13.5055 52.0549 13.8186C51.3691 13.7779 51.281 13.6016 50.7363 13.489V12.9945C49.4124 13.0153 48.2755 13.3364 47.2749 13.6538H46.4507V13.8186C46.0662 13.8735 45.6815 13.9286 45.2969 13.9835V14.1483H45.1321C45.337 14.6367 45.423 15.3336 45.4617 15.9614C46.4148 15.8632 47.3288 15.5487 48.099 15.3021Z" fill="#B5A484"/>
<path d="M91.1264 85.2684C91.0871 85.2494 91.046 85.2351 90.9995 85.2329C91.0324 85.284 91.0758 85.2919 91.1264 85.2684Z" fill="#B5A484"/>
<path d="M90.9546 86.0139V85.8491H90.7897V86.0139C89.7844 85.9961 89.7467 86.1851 89.3062 86.6733C89.1964 86.7282 89.0866 86.7831 88.9766 86.8381C88.8036 87.1903 89.1846 87.5214 89.1415 87.6622H88.9766C88.8667 87.9917 88.7569 88.3216 88.647 88.6512H88.3173C88.198 89.0992 88.0448 89.1547 87.8228 89.4754H87.658V90.6292H87.4932V90.9588C88.554 90.3806 89.2839 89.4569 89.9656 88.4864C90.1304 88.3765 90.2952 88.2665 90.4601 88.1567V87.6622C90.6134 87.3488 90.9801 87.0194 91.2842 86.8381C91.2409 86.3715 91.2162 86.2371 90.9546 86.0139Z" fill="#B5A484"/>
<path d="M79.9104 94.75H80.0752V94.9149C80.5412 95.2627 80.4905 94.6221 80.7345 95.4094H80.8994C80.7694 95.6483 80.763 95.7238 80.5698 95.9038V96.0686C80.8994 95.9587 81.229 95.8489 81.5586 95.739C81.6136 95.629 81.6686 95.5193 81.7235 95.4094H82.0532V95.2445C82.2181 95.1896 82.3828 95.1345 82.5476 95.0797C82.4744 94.5541 82.4099 94.5921 82.2181 94.2555H82.0532C82.1214 94.0093 82.35 93.9926 82.3828 93.9259C82.6074 93.4681 82.5019 93.0986 82.8772 92.772V92.4424C81.7695 92.9672 80.9591 93.8646 79.9104 94.4203V94.75Z" fill="#B5A484"/>
<path d="M85.8444 91.4531C85.5696 91.398 85.295 91.3432 85.0203 91.2883L84.8554 91.4531C84.8005 91.3432 84.7455 91.2333 84.6906 91.1235C84.2253 91.2466 84.2172 91.4182 83.8665 91.6179C83.9922 92.0665 83.9057 91.9931 84.3609 92.1125C84.4003 92.2994 84.684 92.9889 84.5257 93.2662H84.3609V93.4311C85.4432 93.1859 85.8414 92.2642 86.6685 91.7828V91.6179H85.8444V91.4531Z" fill="#B5A484"/>
<path d="M86.9981 91.6179V91.4531H86.6685C86.8555 91.6377 86.6668 91.5233 86.9981 91.6179Z" fill="#B5A484"/>
<path d="M98.4667 72.93C99.0097 73.6433 99.4629 73.4046 99.8249 72.9319C100.272 72.3479 100.58 71.4067 100.747 71.4617C99.9124 71.1871 97.6476 71.8543 98.4667 72.93Z" fill="#B5A484"/>
<path d="M92.698 82.1644C92.6948 82.1687 92.6916 82.1731 92.6885 82.1777C92.6029 82.2947 91.5689 85.062 91.1262 85.2683C91.3006 85.3525 91.4185 85.5708 91.5979 85.6737C91.94 85.8696 92.3501 85.5856 92.6403 85.3187C93.5859 84.4496 94.5429 83.5206 94.919 82.2544C93.9239 82.1384 93.3883 81.232 92.698 82.1644Z" fill="#B5A484"/>
<path d="M101.668 58.4875C101.888 58.3778 102.107 58.2679 102.327 58.1579C102.369 57.2894 102.559 56.7053 101.833 56.5096C101.674 55.7608 101.461 55.414 102.162 55.0261C102.165 54.4339 102.142 54.0893 101.998 53.7075C101.668 53.7624 101.338 53.8175 101.009 53.8724V54.0372C100.844 54.0921 100.679 54.1471 100.514 54.202V54.0372H100.397C100.493 55.1849 100.544 56.3451 100.544 57.5172C100.544 59.4662 100.407 61.3838 100.144 63.2624C100.125 63.4544 100.102 63.6155 100.085 63.7071C100.079 63.7375 100.071 63.7678 100.064 63.7979C99.9058 64.8308 99.7086 65.8515 99.4746 66.8584C99.6293 67.2809 100.034 67.6341 100.479 67.5908C100.83 67.5565 101.123 67.2875 101.284 66.9735C101.444 66.6595 101.496 66.3026 101.545 65.9532C101.618 65.4299 102.62 60.859 102.162 60.6303C102.052 60.5755 101.943 60.5204 101.833 60.4655V60.1358H101.668C101.558 59.8062 101.448 59.4765 101.338 59.1469C101.652 58.8736 101.492 58.7137 101.668 58.4875Z" fill="#B5A484"/>
<path d="M98.701 74.4758C98.0266 74.6607 98.5092 74.5503 98.2065 74.9703C98.116 75.0959 97.9927 75.07 97.8769 75.2999C97.5477 75.2007 97.735 75.3228 97.5473 75.1351H97.3824C97.4357 75.0032 97.712 74.8054 97.712 74.8054V74.1461H97.8769C97.8808 74.0464 97.7287 73.8449 97.712 73.4868H97.3824C97.2725 73.8163 97.1627 74.1461 97.0527 74.4758H96.8879V74.9703H96.7231V75.2999H96.5582C96.4483 75.6294 96.3386 75.9593 96.2286 76.2891C95.3995 77.8367 95.1586 79.316 94.083 80.6105C94.4427 80.8814 94.8026 81.1522 95.1621 81.4232C95.3998 81.603 96.2286 80.2448 96.3934 80.2448C96.5033 79.9151 96.6132 79.5853 96.7231 79.2558C96.8331 79.201 96.9428 79.1459 97.0527 79.091V78.7613C97.4416 78.0737 97.9628 77.4628 98.0417 76.4537H97.712C97.6129 76.1246 97.735 76.3118 97.5473 76.1241V75.9593C97.822 76.0141 98.0966 76.0692 98.3714 76.1241C98.4262 75.9593 98.4813 75.7944 98.5362 75.6296H98.701V75.1351H98.8659V74.311H99.0307V73.9813H98.8659C98.8109 74.1461 98.7559 74.311 98.701 74.4758Z" fill="#B5A484"/>
<path d="M79.2419 44.8741H84.0766C84.0615 44.8516 84.0464 44.8291 84.0315 44.8066H83.8667V44.477H83.7018C83.7568 44.3122 83.8116 44.1473 83.8667 43.9825C83.6809 43.8416 83.8409 44.0046 83.7018 43.8176C83.0233 43.801 81.606 43.638 81.2293 43.9825C79.3924 43.9454 79.5716 44.2766 79.2419 44.8741Z" fill="#B5A484"/>
<path d="M30.6269 22.0603C31.0026 22.316 31.1021 22.5889 31.6159 22.7196V22.5548H31.7807C31.8897 22.3174 31.6159 22.2251 31.6159 22.2251C31.6708 22.0054 31.7258 21.7855 31.7807 21.5658H31.6159C31.561 21.2912 31.506 21.0164 31.4511 20.7417C31.6159 20.7966 31.7807 20.8516 31.9456 20.9065V21.7306H32.7697V21.8955H32.9345V21.7306C33.1542 21.6758 33.3741 21.6207 33.5939 21.5658C33.6487 21.456 33.7036 21.3461 33.7587 21.2362H34.0883C34.1432 21.1264 34.1981 21.0164 34.2532 20.9065C34.4729 20.8516 34.6928 20.7966 34.9125 20.7417C34.9674 20.6319 35.0222 20.522 35.0773 20.412C35.407 20.3022 35.7366 20.1923 36.0663 20.0824C36.1212 19.9726 36.1761 19.8626 36.2311 19.7527H36.5608L36.8904 19.423H37.2201V19.2582H37.5498V19.0934H37.8794V18.9286H38.2091V18.7637H38.5387V18.5989C38.8684 18.4891 39.198 18.3792 39.5277 18.2692V18.1044H40.0222V17.9396C40.2419 17.8847 40.4618 17.8296 40.6815 17.7747V17.6099C40.9012 17.555 41.1211 17.5 41.3408 17.4451C41.4506 17.2803 41.5605 17.1154 41.6705 16.9506C41.8353 17.0055 42.0001 17.0605 42.165 17.1154V16.9506C42.6593 16.8407 43.1539 16.7309 43.6484 16.6209V16.4561H43.8132C43.7582 16.2913 43.7033 16.1265 43.6484 15.9616C43.2627 15.8672 43.0328 15.7264 42.8243 15.4671H42.6594V14.9727C41.5871 15.0905 40.8221 15.6082 40.0222 15.9616H39.5277V16.1265C39.308 16.1813 39.0881 16.2364 38.8684 16.2913V16.4561H38.3739V16.6209C37.7897 16.9068 37.1314 16.9931 36.7256 17.4451C36.3358 17.9478 37.06 18.1504 36.3959 18.7637C36.2089 18.9483 36.3976 18.8339 36.0663 18.9286C35.9392 18.7611 35.8637 18.7664 35.7366 18.5989H35.5718V18.1044C34.5967 18.3197 33.9708 18.9556 33.2642 19.423H32.9345C32.8797 19.533 32.8246 19.6429 32.7697 19.7527H32.44C32.3852 19.8626 32.3301 19.9726 32.2752 20.0824H31.9456C31.8356 20.2472 31.7258 20.412 31.6159 20.5768H31.2862C31.2314 20.6868 31.1763 20.7967 31.1214 20.9065C30.5433 21.293 30.177 21.2683 29.8028 21.8955H29.6379V22.0603C29.9676 22.0054 30.2973 21.9504 30.6269 21.8955V22.0603Z" fill="#B5A484"/>
<path d="M79.7457 95.2441C79.3554 95.1379 79.4368 95.1979 79.2513 94.9146C78.674 95.0486 78.3601 95.3456 77.9326 95.5738H77.6029V95.7387H77.2733V95.9035H76.9436V96.0683H76.614V96.2332H76.2843V96.3979H75.9546V96.5628H75.625V96.7277C75.2953 96.8376 74.9657 96.9474 74.636 97.0573V97.2221H74.1415V97.3869C73.9218 97.4419 73.7019 97.4969 73.4822 97.5518V97.7166C71.2298 98.4308 68.9767 99.1452 66.7242 99.8594H65.9C64.5804 100.265 62.8286 100.287 61.4497 100.684C60.7165 100.894 59.6387 100.439 59.1421 100.848C58.4454 100.864 58.285 100.93 58.153 101.508C57.9335 101.818 58.2143 102.178 58.3179 102.661C59.1132 102.669 60.076 102.702 60.6255 102.497C60.5706 102.167 60.5156 101.837 60.4607 101.508H60.2958C60.3507 101.343 60.4059 101.178 60.4607 101.013C60.9931 101.077 60.9423 101.163 61.2848 101.343C61.3397 101.727 61.3948 102.112 61.4497 102.497C62.2738 102.387 63.0981 102.277 63.9221 102.167V102.002H63.5924C63.6473 101.837 63.7024 101.673 63.7573 101.508H64.5814V102.002C65.3107 102.015 66.205 102.015 66.5594 101.673H66.7242V101.508C66.5594 101.453 66.3946 101.398 66.2298 101.343V101.178C65.856 101.049 65.8225 101.288 65.7353 101.343C65.5704 101.288 65.4056 101.233 65.2407 101.178V100.519C65.9656 100.458 65.7803 100.448 66.3946 100.354C66.5802 99.8668 66.3682 100.17 66.889 100.189C66.9708 100.615 67.0564 100.917 67.0539 101.508C68.7069 101.469 69.8182 100.991 71.0098 100.519H71.5043V100.354H71.9988V100.189H72.4932V100.024H72.9877V99.8594H73.3174V99.6946C73.647 99.6397 73.9767 99.5846 74.3064 99.5297V99.3648H74.636V99.2002H74.9657V99.0352H75.2953V98.8704H75.7898V98.7056C76.1195 98.5956 76.4491 98.4859 76.7788 98.3759V98.2112H77.1085V98.0463H77.4381V97.8813H77.7678V97.7166H78.0974V97.5518H78.4271L78.7568 97.2221H79.0863C79.1413 97.1121 79.1964 97.0024 79.2513 96.8924H79.5808V96.7277H79.9106C79.9654 96.6177 80.0205 96.5079 80.0753 96.3979H80.405V96.2332H80.5698V96.0683H79.9106C79.8557 95.7935 79.8006 95.5189 79.7457 95.2441Z" fill="#B5A484"/>
<path d="M65.4053 13.9836C65.7826 14.244 65.6896 14.7898 65.5701 15.1374C66.7815 15.6403 68.2288 15.6596 69.526 16.1264V16.2912C70.5149 16.566 71.5041 16.8406 72.4929 17.1154V17.2802H72.8226V17.445H73.3171V17.6098H73.6467V17.7747H74.1412V17.9395H74.4709V18.1043H74.8005V18.2692H75.1302V18.434H75.6246V18.5988C75.9543 18.7088 76.2839 18.8187 76.6136 18.9285V19.0933H76.9433L77.2729 19.423H77.6026C77.6575 19.5329 77.7126 19.6428 77.7675 19.7526H78.0971V19.9174H78.4268V20.0823H78.7564V20.2471C79.1022 20.4365 79.1204 20.2552 79.4157 20.5768H79.5805V18.9285C79.5858 18.9028 79.8501 18.8693 79.7454 18.5988H79.5805C79.3111 18.2024 79.4587 18.4933 79.0861 18.2692V18.1043H78.7564V17.9395H78.4268C78.3719 17.8296 78.3168 17.7198 78.2619 17.6098C77.9322 17.4999 77.6026 17.3901 77.2729 17.2802C77.2181 17.1702 77.163 17.0605 77.1081 16.9505H76.7785V16.7857H76.2839V16.6209H75.9543V16.456C75.6246 16.3461 75.295 16.2363 74.9654 16.1264V15.9616H74.4709V15.7967H74.1412V15.6319H73.6467V15.4671H73.3171V15.3022H72.8226V15.1374H72.3281V14.9726H71.8337V14.8077C71.5039 14.7529 71.1743 14.6978 70.8447 14.6429C70.782 14.6561 70.7233 15.0786 70.5149 14.9726C70.405 14.7529 70.2953 14.533 70.1853 14.3133C68.1526 13.8737 66.1194 13.4342 64.0867 12.9946C64.3614 13.3243 64.636 13.6539 64.9108 13.9836H65.4053Z" fill="#B5A484"/>
<path d="M13.8307 53.2492C13.823 52.9932 13.7541 52.0845 14.0356 51.9478C14.28 51.8291 14.4063 51.9158 14.4978 52.0423C14.5296 51.8034 14.5637 51.5656 14.5996 51.3281C14.5635 51.35 14.5227 51.3737 14.4734 51.3998C14.1986 51.0701 13.9238 50.7403 13.6492 50.4108C13.4635 50.2699 13.6235 50.4329 13.4844 50.246C13.7371 50.0968 13.8329 50.0075 13.9789 49.7515C14.2535 49.6964 14.5283 49.6416 14.803 49.5867V49.7515C14.8245 49.7558 14.8457 49.7601 14.8672 49.7642C14.9898 49.1218 15.1263 48.4841 15.2784 47.8523C15.1749 47.3865 15.0714 46.9205 14.9679 46.4549C14.6382 46.345 14.3086 46.235 13.9789 46.1253V45.1363H14.1437V44.8066H13.9789C13.6492 45.9053 13.3196 47.0045 12.9899 48.1032C12.776 48.8533 13.4139 49.2864 13.3196 49.5867C13.0999 49.7515 12.88 49.9163 12.6603 50.0812C12.5568 50.1586 12.1846 52.9442 12.2086 53.2568C12.7488 53.2861 13.2907 53.2834 13.8307 53.2492Z" fill="#B5A484"/>
<path d="M14.4732 44.6417C14.6812 44.8261 14.8058 45.0701 14.9677 45.301H15.1325V45.6307H15.2974V46.1252C15.4474 46.1117 15.5972 46.0978 15.7472 46.0843C15.8642 45.6787 15.9855 45.2747 16.1146 44.874H18.3019C18.0696 44.7965 17.8372 44.7192 17.605 44.6417C17.5128 44.5842 17.485 44.4147 17.2753 44.3121V43.9824C16.9456 43.9275 16.616 43.8725 16.2863 43.8176C16.3961 43.3231 16.506 42.8286 16.616 42.3341H16.7808C16.8906 42.0044 17.0005 41.6748 17.1105 41.3451H17.2753V40.8507H17.4401V40.521H17.605V40.1913H17.7698C17.8247 39.9716 17.8796 39.7517 17.9346 39.532H18.0995V39.0375H18.2643C18.4982 38.5589 18.5761 38.2228 18.7588 37.7189H18.9236C19.0248 37.2107 18.1865 37.1098 18.7588 36.4003C18.9274 35.6725 19.4621 35.3821 20.0774 35.5761C20.352 35.0816 20.6268 34.5871 20.9015 34.0926C21.0113 34.0378 21.1213 33.9827 21.2312 33.9278V33.5982C21.341 33.5433 21.4509 33.4882 21.5609 33.4333V33.1037C21.6706 33.0488 21.7806 32.9937 21.8905 32.9388V32.6092C22.0003 32.5543 22.1102 32.4993 22.2202 32.4444V32.1147C22.385 32.0049 22.5498 31.895 22.7147 31.785V31.4554C22.9344 31.2906 23.1543 31.1257 23.374 30.9609V30.6312C23.5937 30.4664 23.8136 30.3016 24.0333 30.1368V29.8071C24.1432 29.7522 24.253 29.6972 24.363 29.6423C24.6926 29.2028 25.0223 28.7632 25.3519 28.3236H25.5168C25.3109 28.0691 25.0782 27.9145 24.6926 27.8291C24.5934 27.5 24.7155 27.6872 24.5278 27.4995C24.6887 26.2451 26.2301 26.1866 26.8354 25.1919C27.4624 25.2624 27.4626 25.3941 27.6595 25.8512C28.3563 25.673 29.1517 24.9413 29.4727 24.3677C29.6868 24.178 29.2414 23.6638 29.143 23.2139H28.8133C28.6863 23.1577 28.7703 22.7583 28.3189 22.8843C28.264 22.9942 28.2089 23.1042 28.154 23.2139H27.8244C27.6595 23.4337 27.4947 23.6535 27.3299 23.8733C27.1651 23.9832 27.0002 24.0931 26.8354 24.2029V24.3677H26.5057C26.1212 24.8073 25.7365 25.2469 25.3519 25.6864C24.9674 26.016 24.5827 26.3457 24.1981 26.6754V27.005H24.0333C23.8685 27.2247 23.7036 27.4446 23.5388 27.6643C23.264 27.884 22.9894 28.1039 22.7147 28.3236V28.6533C22.4399 28.873 22.1651 29.0929 21.8905 29.3126V29.6423C21.7257 29.7522 21.5609 29.8622 21.396 29.9719V30.3016C21.2312 30.4115 21.0664 30.5215 20.9015 30.6312V30.9609C20.7916 31.0158 20.6817 31.0708 20.5719 31.1257V31.785C20.1873 32.1147 19.8026 32.4444 19.4181 32.774V33.1037C19.3081 33.1586 19.1982 33.2136 19.0884 33.2685C19.0334 33.4333 18.9785 33.5982 18.9236 33.763H18.7588V34.0926C18.6488 34.1475 18.5389 34.2026 18.4291 34.2575C18.3192 34.5871 18.2092 34.9168 18.0995 35.2465C17.9895 35.3013 17.8796 35.3564 17.7698 35.4113C17.6599 35.7409 17.5499 36.0706 17.4401 36.4003H17.2753V36.7299H17.1105V37.0596H16.9456V37.3892H16.7808V37.7189H16.616V38.0485H16.4512V38.3782H16.2863V38.7079H16.1215C15.9987 39.0693 16.2476 39.1618 16.2863 39.3672C16.1543 39.729 16.1703 40.0647 16.616 40.3561C16.5609 40.521 16.506 40.6858 16.4512 40.8507C15.9023 40.8373 15.7056 40.7588 15.2974 40.6858C15.0139 41.9947 14.1844 42.9812 14.1436 44.4769H14.4732V44.6417Z" fill="#B5A484"/>
<path d="M55.846 100.684H53.2088C53.2088 100.684 52.5548 101.663 52.5495 101.673H51.3957C51.1211 101.343 50.8463 101.013 50.5715 100.684V100.354C50.2419 100.299 49.9122 100.244 49.5825 100.189V100.025C49.0882 100.079 48.5936 100.134 48.0991 100.189C48.0442 100.079 47.9893 99.9696 47.9342 99.8597H47.6046C47.0521 99.5832 46.4862 99.3717 45.6267 99.3652C45.7146 99.7789 45.9756 100.484 45.6267 100.849C45.7259 101.178 45.6037 100.991 45.7915 101.178V101.343C46.176 101.398 46.5607 101.453 46.9453 101.508V101.673H47.6046C48.7554 102.052 50.3573 102.147 51.5605 102.497C52.1064 102.656 52.6916 102.369 53.044 102.662H56.1757V102.497H56.0109C56.0564 102.088 56.2852 101.617 56.5054 101.343C56.6153 101.288 56.7251 101.233 56.835 101.178V100.849H55.846V100.684Z" fill="#B5A484"/>
<path d="M17.9352 77.9374C18.2685 77.8851 18.2648 78.1021 18.2648 78.1021H19.089C18.9691 77.5531 18.1096 75.7627 17.7703 75.4649C17.6711 75.1357 17.7933 75.3229 17.6055 75.1353C17.4951 75.6317 17.3075 75.7594 17.111 76.1242C16.6502 76.0079 16.4847 75.8249 16.2869 75.4649H16.1221C16.2417 74.989 16.2989 74.9184 16.7814 74.8056C16.9685 74.6209 16.7797 74.7354 17.111 74.6408C17.1659 74.8056 17.2208 74.9704 17.2759 75.1353H17.6055C17.1659 73.8717 16.7263 72.6077 16.2869 71.3442H18.2648C18.3711 70.9538 18.3112 71.0353 18.5945 70.8497C18.7816 70.6651 18.5928 70.7795 18.9241 70.6848C19.2045 71.0364 19.2653 70.7756 19.4186 71.3442H24.1987C23.979 71.0694 23.7591 70.7948 23.5394 70.52H23.3745V70.3552L23.2097 70.52H23.0449V70.3552H22.2207C22.2207 70.3552 22.1452 70.2531 22.0554 70.16H16.1151C15.8189 69.24 15.5555 68.3059 15.3233 67.3601C15.2468 67.4285 15.1797 67.4951 15.1331 67.5531C14.2079 67.5501 14.1642 67.358 13.6496 67.0586C13.7154 66.097 14.1439 65.6861 14.9089 65.4895C14.4014 62.9081 14.1344 60.2431 14.1344 57.5171C14.1344 57.4529 14.136 57.3891 14.1364 57.325C13.9745 57.1303 13.7134 56.9587 13.4848 56.8392C13.5733 56.1468 13.871 56.1623 14.1675 55.8592C14.1832 55.4641 14.2062 55.0707 14.2331 54.6787C13.7675 54.5715 13.5326 54.4106 13.32 54.0371C12.462 54.0538 12.6766 54.0959 12.1662 54.3667C12.1647 55.2001 12.3046 55.5574 12.8255 55.8503C12.6606 56.07 12.4958 56.2897 12.331 56.5095H12.1662V57.1676C12.1662 57.5491 12.1642 57.9332 12.1627 58.3181C12.1587 59.2781 12.1569 60.2438 12.1922 61.1913C12.2402 62.4821 12.8255 63.8314 12.8255 65.0807V66.0696H12.9903V66.8938H13.1551V67.8827H13.32V68.5421H13.4848V69.2014H13.6496V69.8607H13.8144V70.3552H13.9793V71.0145H14.1441V71.509H14.3089V72.0035H14.4738V72.498H14.6386V72.9925H14.8034V73.3221H14.9683C15.0231 73.6516 15.078 73.9814 15.1331 74.3111H15.2979C15.3528 74.5308 15.4077 74.7507 15.4627 74.9704H15.6276V75.3001H15.7924V75.7945H15.9572C16.0121 76.0142 16.067 76.2341 16.1221 76.4539H16.2869V76.9484C16.4682 77.3492 16.8272 77.59 16.9462 78.1021H17.9352V77.9374Z" fill="#B5A484"/>
<path d="M40.5169 97.3874H40.1872C39.2034 96.8755 38.912 96.4604 37.55 96.728C37.3639 96.0391 36.9467 95.901 36.3962 95.5742V95.4094H36.0665C36.0115 95.2995 35.9566 95.1897 35.9017 95.0797C35.682 95.0249 35.4621 94.9698 35.2424 94.9149C35.1873 94.805 35.1324 94.6952 35.0775 94.5853C34.8578 94.5304 34.6379 94.4753 34.4182 94.4205V94.2556C34.2534 94.2007 34.0886 94.1457 33.9237 94.0908C33.8687 93.9808 33.8138 93.871 33.7589 93.7611H33.4292C33.3742 93.6512 33.3193 93.5414 33.2644 93.4315H32.9347C32.8799 93.3215 32.8248 93.2117 32.7699 93.1018H32.4403C32.3854 92.9918 32.3303 92.8821 32.2754 92.7721H31.9458C31.8358 92.6073 31.7261 92.4425 31.6161 92.2777H31.2865C31.1216 92.0578 30.9568 91.838 30.792 91.6183H30.4623C30.2975 91.3985 30.1327 91.1788 29.9678 90.959H29.6382C29.4733 90.7391 29.3085 90.5194 29.1437 90.2997H28.814C28.4295 89.8601 28.0448 89.4205 27.6602 88.981H27.3306C27.0009 88.5965 26.6712 88.2118 26.3416 87.8273C26.2316 87.7722 26.1219 87.7173 26.0119 87.6624V87.3328C25.5723 86.9482 25.1329 86.5636 24.6933 86.179V85.8493C24.4185 85.6294 24.1439 85.4097 23.8692 85.19V84.8604H23.7043C23.5944 84.6955 23.4846 84.5307 23.3747 84.3659C23.2647 84.3108 23.155 84.2559 23.045 84.201V83.8714C22.8802 83.7615 22.7153 83.6515 22.5505 83.5417V83.2121C22.4406 83.157 22.3306 83.1021 22.2209 83.0472V82.7176C22.056 82.6076 21.8912 82.4977 21.7264 82.3879V82.0582C21.6164 82.0032 21.5065 81.9483 21.3967 81.8934C21.3417 81.7286 21.2868 81.5637 21.2319 81.3989H21.0671V81.0693C20.9571 81.0144 20.8472 80.9594 20.7374 80.9045C20.6823 80.7396 20.6275 80.5748 20.5726 80.4099H20.4077V80.0803H20.2429V79.7507C20.133 79.6958 20.023 79.6407 19.9133 79.5858C19.6368 79.1994 20.0891 79.2901 19.4188 79.0913C19.3637 79.2562 19.3088 79.4209 19.2539 79.5858C18.6634 79.701 18.5109 79.8083 17.9353 79.5858C18.0515 80.1187 18.4781 80.9763 18.7594 81.3989C18.8692 81.4538 18.9792 81.5089 19.0891 81.5637V81.8934C19.2539 82.0032 19.4188 82.1131 19.5836 82.2231C19.6934 82.5526 19.8033 82.8824 19.9133 83.2121C20.023 83.267 20.133 83.3218 20.2429 83.3769V83.7065C20.4077 83.8163 20.5726 83.9263 20.7374 84.0362V84.3659C20.9022 84.4756 21.0671 84.5856 21.2319 84.6955V85.0252C21.3967 85.1349 21.5615 85.2448 21.7264 85.3548V85.6845C21.8912 85.7943 22.056 85.9042 22.2209 86.0141C22.6565 86.498 22.3658 86.6423 23.2098 86.8383C23.2908 87.5741 23.8428 88.1996 24.3636 88.4865V88.6514C24.453 88.6114 24.6933 88.3218 24.6933 88.3218H25.5174V89.1459H25.1878C25.3643 89.831 25.9155 90.0384 26.3416 90.4646C26.6164 90.794 26.891 91.1238 27.1657 91.4535H27.4954C27.5503 91.5633 27.6053 91.6732 27.6602 91.7832H27.8251C27.9899 92.0029 28.1547 92.2228 28.3195 92.4425H28.6492C28.814 92.6622 28.9789 92.8821 29.1437 93.1018H29.4733C29.6382 93.3215 29.803 93.5414 29.9678 93.7611H30.2975C30.3524 93.871 30.4074 93.9808 30.4623 94.0908H30.792C30.9019 94.2556 31.0117 94.4205 31.1216 94.5853H31.4513C31.5062 94.6952 31.5612 94.805 31.6161 94.9149C31.781 94.9698 31.9458 95.0249 32.1106 95.0797V95.2446H32.4403C32.4952 95.3545 32.5502 95.4643 32.6051 95.5742C32.7699 95.6291 32.9347 95.6842 33.0996 95.739V95.9038C33.3193 95.9588 33.5392 96.0138 33.7589 96.0688C33.8138 96.1787 33.8687 96.2884 33.9237 96.3983C34.1434 96.4533 34.3633 96.5083 34.583 96.5632C34.6379 96.6732 34.6928 96.7829 34.7479 96.8929C35.0775 97.0028 35.4072 97.1126 35.7368 97.2225C35.7917 97.3325 35.8466 97.4422 35.9017 97.5522C36.1214 97.6071 36.3413 97.6621 36.561 97.717V97.8819C36.7807 97.9367 37.0006 97.9918 37.2203 98.0467V98.2115H37.7148V98.3763C37.9345 98.4312 38.1544 98.4862 38.3741 98.5412V98.706H38.8686C40.3887 99.3903 41.9011 100.368 43.8135 100.684C43.8684 100.025 43.9232 99.3651 43.9783 98.706C42.8245 98.3214 41.6705 97.9367 40.5169 97.5522V97.3874ZM32.2754 94.0908C32.6046 94.19 32.4173 94.0679 32.6051 94.2556C32.2759 94.1563 32.4632 94.2785 32.2754 94.0908Z" fill="#B5A484"/>
</g>
<mask id="mask1_89_2568" style="mask-type:alpha" maskUnits="userSpaceOnUse" x="9" y="9" width="96" height="96">
<rect x="9" y="9" width="96" height="96" fill="#D9D9D9"/>
</mask>
<g mask="url(#mask1_89_2568)">
<path d="M26.9272 51.4077H28.9683V55.4808C29.37 55.1272 29.7742 54.8622 30.181 54.6855C30.5876 54.5088 30.9993 54.4203 31.416 54.4203C32.2295 54.4203 32.9148 54.7073 33.4721 55.281C33.9491 55.7782 34.1878 56.5082 34.1878 57.4713V62.997H32.1617V59.3311C32.1617 58.3628 32.1164 57.707 32.0261 57.3637C31.9359 57.0205 31.7813 56.7643 31.5631 56.5952C31.3445 56.4261 31.0747 56.3417 30.7534 56.3417C30.3366 56.3417 29.9789 56.4826 29.6801 56.7643C29.3814 57.046 29.1742 57.4304 29.0588 57.917C28.9985 58.1682 28.9683 58.7419 28.9683 59.6386V62.997H26.9272V51.4077Z" fill="#B5A484"/>
<path d="M42.5321 54.6355H44.5884V62.997H42.5321V62.1132C42.1309 62.5027 41.7283 62.7832 41.3248 62.9548C40.9211 63.1264 40.4834 63.2122 40.0121 63.2122C38.9539 63.2122 38.0387 62.7934 37.2663 61.9557C36.4939 61.1179 36.1079 60.0766 36.1079 58.8318C36.1079 57.5406 36.4814 56.4826 37.2288 55.6576C37.9761 54.8328 38.8836 54.4204 39.9519 54.4204C40.4434 54.4204 40.9046 54.5152 41.3358 54.7047C41.7673 54.8943 42.166 55.1788 42.5321 55.5578V54.6355ZM40.3707 56.357C39.7351 56.357 39.2072 56.5864 38.7869 57.0449C38.3667 57.5034 38.1564 58.0914 38.1564 58.8087C38.1564 59.5309 38.3702 60.1253 38.7981 60.5915C39.226 61.058 39.7526 61.291 40.3781 61.291C41.0238 61.291 41.5593 61.0617 41.9845 60.6032C42.4098 60.1446 42.6226 59.5438 42.6226 58.8009C42.6226 58.0736 42.4098 57.4843 41.9845 57.0335C41.5593 56.5825 41.0213 56.357 40.3707 56.357Z" fill="#B5A484"/>
<path d="M47.4387 54.6355H49.4948V55.4925C49.9611 55.0914 50.3832 54.8124 50.7618 54.6557C51.1405 54.4987 51.5278 54.4204 51.9239 54.4204C52.7362 54.4204 53.4255 54.7099 53.9922 55.2887C54.4684 55.7806 54.7066 56.5081 54.7066 57.4714V62.997H52.6732V59.3352C52.6732 58.3376 52.629 57.675 52.5415 57.3473C52.454 57.0198 52.301 56.7704 52.0831 56.5988C51.8651 56.4274 51.596 56.3416 51.2755 56.3416C50.8598 56.3416 50.5027 56.4836 50.2049 56.7678C49.9068 57.0517 49.7002 57.4448 49.5849 57.9461C49.5247 58.2072 49.4948 58.7726 49.4948 59.6425V62.997H47.4387V54.6355Z" fill="#B5A484"/>
<path d="M57.4807 51.4077H59.5368V58.0828L62.5644 54.6354H65.1466L61.6166 58.6431L65.5686 62.997H63.0164L59.5368 59.1433V62.997H57.4807V51.4077Z" fill="#B5A484"/>
<path d="M68.7397 54.6357H70.8408L72.9693 59.8822L75.3179 54.6357H77.4251L72.2931 66.0559H70.1696L71.8545 62.3734L68.7397 54.6357Z" fill="#B5A484"/>
<path d="M82.4454 54.4204C83.2186 54.4204 83.9455 54.6176 84.6258 55.012C85.306 55.4066 85.8371 55.9419 86.2188 56.6183C86.6002 57.2945 86.7911 58.0245 86.7911 58.8085C86.7911 59.5975 86.5991 60.3353 86.2149 61.0218C85.8308 61.7085 85.3073 62.2451 84.6447 62.6319C83.9819 63.0188 83.2514 63.2121 82.4531 63.2121C81.2781 63.2121 80.2753 62.7856 79.4442 61.9326C78.6131 61.0796 78.1978 60.0432 78.1978 58.8239C78.1978 57.5174 78.6672 56.4289 79.6061 55.5578C80.4295 54.7995 81.376 54.4204 82.4454 54.4204ZM82.4794 56.3954C81.8407 56.3954 81.3086 56.6222 80.8837 57.0755C80.4587 57.529 80.2462 58.1091 80.2462 58.8161C80.2462 59.5438 80.4563 60.1331 80.8762 60.5839C81.2961 61.0347 81.828 61.2602 82.4718 61.2602C83.1156 61.2602 83.6513 61.0323 84.0789 60.5761C84.5061 60.1202 84.72 59.5335 84.72 58.8161C84.72 58.0989 84.5099 57.5162 84.0901 57.0679C83.6701 56.6195 83.1333 56.3954 82.4794 56.3954Z" fill="#B5A484"/>
<path d="M88.9253 54.6357H91.004V58.6629C91.004 59.4466 91.0569 59.9911 91.1624 60.2959C91.2679 60.6008 91.4379 60.8378 91.672 61.0067C91.906 61.1759 92.1942 61.2604 92.5365 61.2604C92.8787 61.2604 93.1693 61.1772 93.4085 61.0105C93.6476 60.8442 93.8252 60.5995 93.9409 60.2767C94.0263 60.0359 94.0691 59.521 94.0691 58.732V54.6357H96.1253V58.1786C96.1253 59.6388 96.0123 60.6378 95.7863 61.1759C95.51 61.8317 95.1034 62.3351 94.5662 62.686C94.0289 63.0368 93.3461 63.2125 92.5177 63.2125C91.6189 63.2125 90.8922 63.0075 90.3372 62.5977C89.7825 62.1878 89.3921 61.6166 89.1662 60.8837C89.0054 60.3766 88.9253 59.4544 88.9253 58.1171V54.6357Z" fill="#B5A484"/>
<path d="M18.4971 51.6924H24.62V53.8136H22.6016V62.9972H20.4628V53.8136H18.4971V51.6924Z" fill="#B5A484"/>
</g>
</svg>
